<?xml version="1.0" encoding="utf-8"?>
<!-- Generator: Adobe Illustrator 21.1.0, SVG Export Plug-In . SVG Version: 6.00 Build 0)  -->
<svg version="1.1" id="Layer_1" xmlns="http://www.w3.org/2000/svg" xmlns:xlink="http://www.w3.org/1999/xlink" x="0px" y="0px"
	 viewBox="0 0 445 361" style="enable-background:new 0 0 445 361;" xml:space="preserve">
<style type="text/css">
	.st0{fill:#000333;stroke:#231F20;stroke-linecap:round;stroke-miterlimit:10;}
</style>
<g>
	<g>
		<path d="M60.5,30.4c1.3,0,2,0.1,3.4,0.1c-0.2,3.8-0.2,5.6-0.4,9.4c2.4,0.1,3.7,0.1,6.1,0.3c0.2-3.8,0.3-5.6,0.4-9.4
			c1.3,0.1,2,0.1,3.4,0.1c-0.4,8.7-0.7,13.1-1.1,21.8c-1.3-0.1-2-0.1-3.3-0.2c0.2-4.1,0.3-6.1,0.5-10.2c-2.4-0.1-3.7-0.2-6.1-0.3
			c-0.2,4.1-0.2,6.1-0.4,10.2c-1.3-0.1-2-0.1-3.3-0.1C60,43.4,60.1,39,60.5,30.4z"/>
		<path d="M75.7,47.3c0.1-1.8,0.1-2.7,0.2-4.5c0.2-3.5,1.5-5.7,5.3-5.5c3.8,0.2,4.8,2.5,4.6,6c-0.1,1.8-0.2,2.7-0.3,4.5
			c-0.2,3.5-1.5,5.7-5.2,5.4C76.5,53.1,75.5,50.8,75.7,47.3z M82.4,47.9c0.1-2,0.2-2.9,0.3-4.9c0.1-1.8,0.2-3.5-1.6-3.6
			c-1.8-0.1-1.9,1.6-2,3.4c-0.1,2-0.2,2.9-0.3,4.9c-0.1,1.8-0.2,3.4,1.6,3.5C82.2,51.3,82.3,49.6,82.4,47.9z"/>
		<path d="M87.9,37.9c1.3,0.1,1.9,0.1,3.2,0.2c0.5,5.1,0.7,7.6,1.2,12.7c1.2-5,1.8-7.5,3-12.5c1.2,0.1,1.8,0.1,3.1,0.2
			c-1.8,6.2-2.6,9.3-4.4,15.5c-1.5-0.1-2.3-0.2-3.8-0.3C89.3,47.4,88.8,44.2,87.9,37.9z"/>
		<path d="M99.3,48.4c0.1-1.4,0.2-2.2,0.3-3.6c0.3-4.2,1.6-6.2,5.5-5.9c4.3,0.3,4.6,2.9,4.2,7.3c0,0.5-0.1,0.8-0.1,1.3
			c-2.7-0.2-4-0.3-6.6-0.5c-0.1,1.3-0.2,1.9-0.3,3.2c-0.2,1.9,0.3,2.8,1.7,2.9c1.4,0.1,1.8-0.9,1.9-2.4c0-0.4,0-0.6,0.1-1
			c1.2,0.1,1.8,0.2,3,0.3c0,0.2,0,0.4-0.1,0.6c-0.3,3.2-1.7,5-5.2,4.7C99.8,54.7,99,52.5,99.3,48.4z M106.3,45.6
			c0-0.6,0.1-0.8,0.1-1.4c0.2-1.9,0-3-1.5-3.1c-1.5-0.1-1.9,0.7-2.1,3.4c0,0.3,0,0.5-0.1,0.8C104.1,45.4,104.8,45.5,106.3,45.6z"/>
		<path d="M112.8,39.7c1.3,0.1,1.9,0.2,3.1,0.3c-0.1,0.9-0.1,1.3-0.2,2.2c1.4-1.8,2.7-2.2,4-2.1c0.1,0,0.3,0,0.5,0.1
			c-0.1,1.3-0.2,1.9-0.3,3.2c-0.5-0.2-1.1-0.4-1.7-0.5c-1-0.1-1.8,0.2-2.7,1.3c-0.4,4.6-0.6,6.9-1.1,11.5c-1.2-0.1-1.9-0.2-3.1-0.3
			C112,49.2,112.2,46,112.8,39.7z"/>
		<path d="M127.5,51.4c0.2-1.8,0.3-2.8,0.5-4.6c0.4-3.6,1.8-5.7,5.6-5.3c3.8,0.4,4.7,2.8,4.2,6.4c-0.2,1.8-0.3,2.8-0.5,4.6
			c-0.4,3.6-1.8,5.7-5.5,5.3C128,57.4,127.1,55,127.5,51.4z M134.1,52.3c0.2-2,0.3-3,0.6-5c0.2-1.8,0.4-3.5-1.4-3.7
			c-1.8-0.2-2,1.5-2.2,3.3c-0.2,2-0.3,3-0.5,5c-0.2,1.8-0.4,3.5,1.4,3.7C133.7,55.8,133.9,54.1,134.1,52.3z"/>
		<path d="M140.2,42.4c1.3,0.1,1.9,0.2,3.2,0.4c0.2,5.2,0.3,7.8,0.5,13c1.5-5,2.2-7.5,3.7-12.6c1.2,0.1,1.8,0.2,3,0.4
			c-2.1,6.2-3.1,9.3-5.2,15.5c-1.5-0.2-2.3-0.3-3.8-0.5C141,52.2,140.7,48.9,140.2,42.4z"/>
		<path d="M151,53.6c0.2-1.5,0.3-2.2,0.5-3.6c0.5-4.2,1.9-6.2,5.8-5.7c4.2,0.5,4.4,3.2,3.8,7.6c-0.1,0.5-0.1,0.8-0.2,1.3
			c-2.6-0.4-4-0.5-6.6-0.9c-0.2,1.3-0.3,1.9-0.4,3.2c-0.3,1.9,0.2,2.8,1.5,3c1.4,0.2,1.8-0.8,2-2.4c0.1-0.4,0.1-0.6,0.1-1
			c1.2,0.2,1.8,0.2,3,0.4c0,0.2-0.1,0.4-0.1,0.6c-0.4,3.2-2,5-5.4,4.5C151.2,60.1,150.4,57.8,151,53.6z M158.1,51.1
			c0.1-0.6,0.1-0.9,0.2-1.4c0.3-2,0.2-3.1-1.3-3.3c-1.5-0.2-1.9,0.6-2.3,3.4c0,0.3-0.1,0.5-0.1,0.9C155.9,50.9,156.7,51,158.1,51.1z
			"/>
		<path d="M164.9,45.5c1.2,0.2,1.9,0.3,3.1,0.4c-0.1,0.9-0.2,1.4-0.3,2.3c1.5-1.8,2.8-2.1,4.1-1.9c0.1,0,0.3,0,0.5,0.1
			c-0.2,1.3-0.3,2-0.5,3.3c-0.4-0.2-1.1-0.5-1.7-0.6c-1-0.1-1.8,0.1-2.7,1.2c-0.7,4.7-1,7-1.7,11.7c-1.2-0.2-1.8-0.3-3.1-0.4
			C163.6,55.1,164,51.9,164.9,45.5z"/>
		<path d="M182,41.3c1.3,0.2,1.9,0.3,3.1,0.5c-0.5,3.3-0.8,4.9-1.3,8.1c1.3-0.9,2.8-1.5,4.5-1.2c2,0.3,2.2,2.1,2,3.7
			c-0.9,5.2-1.3,7.8-2.2,13c-1.2-0.2-1.8-0.3-3.1-0.5c0.8-4.9,1.2-7.3,2-12.2c0.2-1.1,0-1.9-1-2c-0.7-0.1-1.6,0.2-2.4,0.7
			c-0.8,5.2-1.2,7.7-2.1,12.9c-1.2-0.2-1.8-0.3-3.1-0.5C179.9,54.8,180.6,50.3,182,41.3z"/>
		<path d="M191.8,59.7c0.2-1.5,0.4-2.2,0.6-3.7c0.7-4.3,2.2-6.3,6.1-5.6c4.2,0.7,4.3,3.4,3.5,7.9c-0.1,0.5-0.1,0.8-0.2,1.3
			c-2.6-0.5-3.9-0.7-6.6-1.1c-0.2,1.3-0.3,1.9-0.6,3.2c-0.3,2,0.1,2.9,1.4,3.1c1.4,0.2,1.8-0.7,2.1-2.4c0.1-0.4,0.1-0.6,0.2-1
			c1.2,0.2,1.8,0.3,3,0.5c0,0.2-0.1,0.4-0.1,0.6c-0.6,3.2-2.2,5-5.6,4.4C191.7,66.3,191.1,63.9,191.8,59.7z M199,57.4
			c0.1-0.6,0.2-0.9,0.3-1.5c0.3-2,0.3-3.1-1.2-3.4c-1.5-0.3-2,0.6-2.5,3.3c-0.1,0.3-0.1,0.5-0.1,0.9C196.9,57,197.6,57.1,199,57.4z"
			/>
		<path d="M206.1,51.9c1.2,0.2,1.9,0.3,3.1,0.5c-0.2,0.9-0.3,1.4-0.4,2.3c1.6-1.7,2.9-2,4.2-1.8c0.1,0,0.3,0,0.5,0.1
			c-0.2,1.3-0.4,2-0.6,3.3c-0.4-0.3-1-0.5-1.6-0.6c-1-0.2-1.8,0-2.8,1.1c-0.9,4.7-1.3,7.1-2.2,11.8c-1.2-0.2-1.8-0.3-3-0.6
			C204.3,61.6,204.9,58.4,206.1,51.9z"/>
		<path d="M213.1,63.4c0.3-1.5,0.4-2.2,0.7-3.7c0.8-4.3,2.3-6.3,6.2-5.5c4.2,0.8,4.2,3.5,3.3,8c-0.1,0.5-0.2,0.8-0.3,1.3
			c-2.6-0.5-3.9-0.8-6.5-1.3c-0.3,1.3-0.4,2-0.6,3.3c-0.4,2,0,2.9,1.3,3.2c1.4,0.3,1.9-0.7,2.2-2.3c0.1-0.4,0.1-0.6,0.2-1
			c1.2,0.2,1.8,0.3,3,0.6c0,0.2-0.1,0.4-0.1,0.6c-0.7,3.3-2.3,5-5.7,4.3C212.9,70.1,212.3,67.7,213.1,63.4z M220.4,61.3
			c0.1-0.6,0.2-0.9,0.3-1.5c0.4-2,0.4-3.1-1.1-3.4c-1.5-0.3-2,0.5-2.5,3.3c-0.1,0.3-0.1,0.5-0.2,0.9C218.2,60.9,218.9,61,220.4,61.3
			z"/>
		<path d="M232.3,70c0.9-4.2,1.3-6.4,2.2-10.6c-0.7-0.1-1.1-0.2-1.8-0.4c0.2-0.8,0.2-1.2,0.4-2c0.7,0.1,1.1,0.2,1.8,0.4
			c0.4-1.9,0.6-2.9,1-4.8c1.2,0.3,1.9,0.4,3.1,0.6c-0.4,1.9-0.6,2.9-1,4.8c1.1,0.2,1.6,0.3,2.7,0.6c-0.2,0.8-0.3,1.2-0.4,2
			c-1.1-0.2-1.6-0.3-2.7-0.6c-0.9,4.2-1.3,6.2-2.2,10.4c-0.3,1.3-0.1,1.8,1.1,2.1c0.3,0.1,0.7,0.1,1.1,0.2c-0.2,0.9-0.3,1.3-0.5,2.2
			c-0.8-0.1-1.4-0.1-2.1-0.3C232.4,74,231.8,72.3,232.3,70z"/>
		<path d="M240.4,69.5c0.4-1.9,0.6-2.8,1-4.7c0.8-3.7,2.5-5.8,6.2-5c3.7,0.8,4.3,3.4,3.5,7.1c-0.4,1.9-0.6,2.8-1.1,4.7
			c-0.8,3.7-2.5,5.7-6.1,4.9C240.2,75.7,239.6,73.1,240.4,69.5z M246.9,71.1c0.5-2,0.7-3.1,1.1-5.1c0.4-1.8,0.8-3.6-0.9-4
			c-1.8-0.4-2.2,1.4-2.6,3.2c-0.5,2-0.7,3.1-1.1,5.1c-0.4,1.8-0.8,3.6,1,4C246.1,74.7,246.5,72.9,246.9,71.1z"/>
		<path d="M258.1,75c1.1-0.1,1.6-0.1,2.7-0.2c-0.2,2.2,0.2,3.3,1.6,3.7c1.1,0.3,1.8-0.3,2.1-1.3c0.2-0.9,0-1.7-0.7-2.8
			c-0.9-1.2-1.3-1.8-2.2-3.1c-0.9-1.2-1.5-2.5-1.1-4.5c0.6-2.6,2.6-3.6,5.2-3c2.6,0.6,3.5,2.9,3.2,5.3c-0.9,0.1-1.3,0.2-2.2,0.3
			c0.2-1.8,0-3-1.3-3.3c-1-0.2-1.8,0.4-2,1.3c-0.1,0.6,0,1.2,0.4,1.8c0.9,1.3,1.4,2,2.3,3.4c0.9,1.4,1.8,2.9,1.2,5
			c-0.7,2.8-2.9,3.7-5.5,3.1C258.9,80,257.6,77.8,258.1,75z"/>
		<path d="M274.2,59.2c1.2,0.3,1.8,0.4,3.1,0.7c-0.8,3.3-1.2,5-2.1,8.3c1.4-0.8,2.9-1.3,4.6-0.9c1.9,0.5,2,2.4,1.6,4
			c-1.4,5.3-2.1,8-3.4,13.3c-1.2-0.3-1.8-0.5-3-0.8c1.3-5,1.9-7.4,3.2-12.4c0.3-1.2,0.2-1.9-0.8-2.2c-0.7-0.2-1.7,0.1-2.5,0.5
			c-1.3,5.3-2,7.9-3.3,13.1c-1.2-0.3-1.8-0.5-3-0.8C270.7,72.9,271.9,68.4,274.2,59.2z"/>
		<path d="M282.1,79.4c0.5-1.9,0.7-2.9,1.2-4.8c1-3.7,2.7-5.8,6.4-4.8c3.6,0.9,4.1,3.6,3.1,7.3c-0.5,1.9-0.8,2.9-1.3,4.8
			c-1,3.7-2.8,5.7-6.3,4.8C281.6,85.7,281.1,83.1,282.1,79.4z M288.5,81.3c0.6-2.1,0.8-3.1,1.4-5.1c0.5-1.8,1-3.6-0.8-4.1
			c-1.8-0.5-2.2,1.3-2.7,3.2c-0.5,2.1-0.8,3.1-1.4,5.1c-0.5,1.8-1,3.6,0.8,4.1C287.6,84.9,288,83.1,288.5,81.3z"/>
		<path d="M296.3,71.8c1,0.3,1.5,0.4,2.5,0.7c-0.7,5-1,7.5-1.7,12.6c2.2-4.6,3.3-6.9,5.5-11.5c0.9,0.3,1.4,0.4,2.3,0.6
			c-0.5,5.1-0.7,7.6-1.2,12.7c2-4.6,3.1-6.9,5.1-11.6c1,0.3,1.5,0.4,2.5,0.7c-3,6.3-4.5,9.4-7.4,15.7c-1-0.3-1.5-0.4-2.5-0.7
			c0.4-4.9,0.6-7.3,1.1-12.2c-2.2,4.4-3.3,6.6-5.4,11c-1.1-0.3-1.6-0.4-2.7-0.7C295.2,82.1,295.5,78.6,296.3,71.8z"/>
		<path d="M317.2,91.5c1.3-4.3,1.9-6.4,3.2-10.7c-0.7-0.2-1-0.3-1.7-0.5c0.2-0.8,0.4-1.2,0.6-2c0.7,0.2,1,0.3,1.7,0.5
			c0.6-1.9,0.9-2.9,1.4-4.8c1.2,0.4,1.8,0.5,3,0.9c-0.6,1.9-0.9,2.9-1.5,4.8c1.1,0.3,1.6,0.5,2.6,0.8c-0.2,0.8-0.4,1.2-0.6,2
			c-1-0.3-1.6-0.5-2.6-0.8c-1.3,4.2-1.9,6.3-3.2,10.5c-0.4,1.3-0.2,1.9,0.9,2.2c0.3,0.1,0.7,0.2,1.1,0.2c-0.3,0.9-0.4,1.4-0.7,2.3
			c-0.8-0.1-1.4-0.2-2.1-0.5C317,95.7,316.5,93.9,317.2,91.5z"/>
		<path d="M331,74.5c1.2,0.4,1.8,0.5,3,0.9c-1,3.3-1.5,5-2.6,8.3c1.4-0.7,3-1.2,4.7-0.7c1.9,0.6,1.9,2.5,1.4,4.1
			c-1.7,5.3-2.5,8-4.2,13.4c-1.2-0.4-1.8-0.6-3-0.9c1.6-5,2.3-7.5,3.9-12.5c0.4-1.2,0.3-1.9-0.7-2.3c-0.7-0.2-1.7,0-2.5,0.4
			c-1.6,5.3-2.5,7.9-4.1,13.2c-1.2-0.4-1.8-0.6-3-0.9C326.7,88.3,328.2,83.7,331,74.5z"/>
		<path d="M337.9,94.9c0.5-1.5,0.7-2.3,1.2-3.8c1.4-4.4,3.2-6.3,6.9-5.1c4.1,1.3,3.7,4.2,2.2,8.7c-0.2,0.5-0.3,0.8-0.4,1.3
			c-2.5-0.8-3.8-1.2-6.3-2.1c-0.4,1.3-0.6,2-1.1,3.3c-0.6,2-0.4,3,0.9,3.4c1.3,0.4,1.9-0.5,2.5-2.2c0.1-0.4,0.2-0.6,0.3-1
			c1.2,0.4,1.7,0.6,2.9,0.9c-0.1,0.3-0.1,0.4-0.2,0.6c-1.1,3.3-3,4.9-6.2,3.9C336.7,101.8,336.5,99.3,337.9,94.9z M345.4,93.5
			c0.2-0.6,0.3-0.9,0.5-1.5c0.7-2,0.8-3.2-0.7-3.7c-1.5-0.5-2,0.3-3,3.2c-0.1,0.4-0.2,0.5-0.3,0.9C343.3,92.9,344,93.1,345.4,93.5z"
			/>
		<path d="M359.6,90.8c1.1,0.4,1.7,0.6,2.8,0.9c-0.2,0.6-0.3,0.9-0.5,1.6c1.5-0.9,3.1-1,4.4-0.6c1.2,0.4,2,1.3,1.9,3
			c1.6-1,3.3-1.2,4.7-0.7c1.6,0.5,2.5,2.1,1.5,4.8c-1.9,5.2-2.8,7.8-4.6,13c-1.1-0.4-1.6-0.6-2.7-1c1.8-5.1,2.7-7.7,4.5-12.8
			c0.6-1.6,0.2-2.2-0.7-2.5c-0.8-0.3-1.9-0.1-3,0.5c-0.1,0.2-0.1,0.3-0.2,0.5c-1.8,5.2-2.7,7.8-4.5,13c-1.1-0.4-1.6-0.6-2.7-0.9
			c1.8-5.1,2.7-7.7,4.4-12.8c0.6-1.6,0.1-2.2-0.7-2.5c-0.8-0.3-1.9-0.1-3,0.5c-1.8,5.4-2.8,8.1-4.6,13.5c-1.1-0.4-1.6-0.6-2.7-0.9
			C356.2,100.7,357.4,97.4,359.6,90.8z"/>
		<path d="M374.6,107.4c0.5-1.5,0.8-2.3,1.4-3.8c1.6-4.4,3.4-6.2,7.1-4.9c4,1.5,3.6,4.3,1.9,8.9c-0.2,0.5-0.3,0.8-0.5,1.3
			c-2.5-0.9-3.8-1.4-6.3-2.3c-0.5,1.3-0.7,2-1.2,3.3c-0.7,2-0.5,3,0.7,3.5c1.3,0.5,2-0.5,2.6-2.1c0.1-0.4,0.2-0.6,0.4-1
			c1.1,0.4,1.7,0.6,2.8,1.1c-0.1,0.3-0.1,0.4-0.2,0.6c-1.2,3.3-3.2,4.9-6.4,3.7C373.2,114.4,373,111.7,374.6,107.4z M382.2,106.2
			c0.2-0.6,0.3-0.9,0.5-1.5c0.7-2,1-3.2-0.5-3.7c-1.4-0.5-2.1,0.3-3.1,3.1c-0.1,0.4-0.2,0.5-0.3,0.9
			C380.2,105.5,380.8,105.7,382.2,106.2z"/>
		<path d="M390.2,101.6c1.2,0.4,1.8,0.7,3,1.1c-0.2,0.7-0.4,1-0.6,1.6c1.4-0.6,3-1,4.6-0.4c1.9,0.7,1.7,2.7,1.1,4.3
			c-2.1,5.4-3.1,8-5.1,13.4c-1.2-0.4-1.7-0.7-2.9-1.1c1.9-5,2.8-7.5,4.7-12.5c0.4-1.2,0.5-2-0.6-2.3c-0.7-0.2-1.6-0.1-2.5,0.3
			c-2,5.3-3,8-5,13.3c-1.2-0.4-1.7-0.7-2.9-1.1C386.5,111.5,387.8,108.2,390.2,101.6z"/>
		<path d="M397.1,119.5c2.1-5.4,3.1-8,5.2-13.4c1.2,0.5,1.8,0.7,2.9,1.1c-1.9,5-2.9,7.5-4.9,12.5c-0.5,1.2-0.5,2,0.5,2.4
			c0.7,0.3,1.6,0.1,2.4-0.2c2.1-5.3,3.1-8,5.2-13.3c1.2,0.5,1.8,0.7,2.9,1.2c-2.6,6.6-3.9,9.9-6.6,16.5c-1.2-0.5-1.7-0.7-2.9-1.2
			c0.3-0.7,0.4-1,0.6-1.6c-1.4,0.6-3,0.9-4.5,0.4C396.3,123.1,396.5,121.1,397.1,119.5z"/>
		<path d="M417,104.2c1.2,0.5,1.8,0.7,3,1.2c-3.3,7.1-5,10.7-8.3,17.8c-0.4-0.2-0.6-0.2-1-0.4C413.2,115.4,414.5,111.6,417,104.2z
			 M409,124.2c1.2,0.5,1.8,0.7,2.9,1.2c-0.5,1.3-0.8,1.9-1.3,3.1c-1.2-0.5-1.7-0.7-2.9-1.2C408.2,126.1,408.5,125.5,409,124.2z"/>
	</g>
</g>
<path class="st0" d="M256.8,129.8c-7.1,30.9-33.9,111-120.3,111.6c-0.6,0-1-0.5-1-1v-27.8c0-0.9-1.1-1.3-1.7-0.7l-60.2,61.9
	c-0.4,0.4-0.4,1,0,1.4l60.2,60.2c0.6,0.6,1.7,0.2,1.7-0.7v-28.9c0-0.9,0.7-1.7,1.7-1.8c14.3-0.8,115.2-12.3,121.6-173.9
	C258.8,128.8,257.1,128.6,256.8,129.8z"/>
</svg>
