<?xml version="1.0" encoding="utf-8"?>
<!-- Generator: Adobe Illustrator 24.0.0, SVG Export Plug-In . SVG Version: 6.00 Build 0)  -->
<svg version="1.1" id="Layer_1" xmlns="http://www.w3.org/2000/svg" xmlns:xlink="http://www.w3.org/1999/xlink" x="0px" y="0px"
	 viewBox="0 0 78.5 132.2" style="enable-background:new 0 0 78.5 132.2;" xml:space="preserve">
<style type="text/css">
	.st0{fill:#333333;}
	.st1{fill:#67BA89;}
	.st2{fill:#EFE9D3;}
</style>
<g>
	<g>
		<g>
			<path class="st0" d="M35.2,22.4c0,1.3,1,2.3,2.3,2.3c1.3,0,2.3-1,2.3-2.3C39.9,22.4,35.2,22.3,35.2,22.4z"/>
		</g>
		<path class="st1" d="M30.4,12.2c-0.3,0-0.7-0.1-1-0.1l-0.4,0c-6.3-0.4-12.5-1.8-18.4-4.3L8.9,7.1l1.7,5.2c1.5,4.5,5.3,7.8,9.8,8.7
			C22,16.6,25.8,13.3,30.4,12.2z"/>
		<path class="st2" d="M33.6,40.2c-3.2,0-6.1-1.1-8.5-2.8c-6,5.6-9.7,13.5-9.7,22.3l-3.7,65.4C32.2,118.6,46,99.5,46,78.1V32.8
			C43.6,37.3,39,40.2,33.6,40.2z"/>
		<path class="st1" d="M33.6,40.2c-4.6,0-8.6-2.2-11.2-5.5C16,38.9,11.7,46.2,11.7,54.4l-2.8,50.2C24.6,99.6,35.2,85,35.2,68.5V40.1
			C34.7,40.2,34.1,40.2,33.6,40.2z"/>
		<path class="st0" d="M47.2,22.1c0.2,0.8,0.4,1.5,0.5,2.3c0,0,0,0,0,0.1c0.1,0.5,0.1,1,0.1,1.6c0,0.4,0,0.8-0.1,1.2
			c0,0.2,0,0.3-0.1,0.5c0,0.2,0,0.3-0.1,0.5c-0.1,0.5-0.2,1-0.3,1.4c0,0,0,0,0,0l23.5-7.1L47.2,22.1z"/>
	</g>
	<path class="st2" d="M23,26c0-7.2,5.4-13.2,12.4-14.1c-0.6-0.1-1.2-0.1-1.8-0.1c-7.8,0-14.2,6.4-14.2,14.2s6.4,14.2,14.2,14.2
		c0.6,0,1.2-0.1,1.8-0.1C28.4,39.2,23,33.3,23,26z"/>
</g>
<g>
	<path d="M117.7,64.7L113.9,52c-0.3-1.1-0.5-1.4-1.7-1.4h-0.5v-1.2h6.4v1.2h-1.1c-0.5,0-0.9,0.2-0.9,0.6c0,0.3,0,0.5,0.2,0.9L119,62
		h0l3.2-9.6c0.1-0.2-0.6-1.7-1.4-1.7h-1.1v-1.2h6.6v1.2h-1.1c-0.5,0-1,0.1-1,0.7c0,0.4,0.3,1.2,0.4,1.6l2.6,9h0l2.7-9.2
		c0.1-0.4,0.3-1,0.3-1.4c0-0.7-0.5-0.7-1.1-0.7H128v-1.2h5.8v1.2h-0.7c-0.9,0-1.3,0.5-1.4,1l-4,13.2H126l-3.1-10.1h0l-3.3,10.1
		H117.7z"/>
	<path d="M145.4,59.3c0,3.3-2.2,5.7-5.9,5.7s-5.9-2.4-5.9-5.7s2.2-5.7,5.9-5.7S145.4,56,145.4,59.3z M135.7,59.3
		c0,2.5,0.9,4.6,3.7,4.6s3.7-2.2,3.7-4.6s-0.9-4.6-3.7-4.6S135.7,56.8,135.7,59.3z"/>
	<path d="M158.1,59.3c0,3.3-2.2,5.7-5.9,5.7c-3.7,0-5.9-2.4-5.9-5.7s2.2-5.7,5.9-5.7C155.9,53.5,158.1,56,158.1,59.3z M148.4,59.3
		c0,2.5,0.9,4.6,3.7,4.6s3.7-2.2,3.7-4.6s-0.9-4.6-3.7-4.6S148.4,56.8,148.4,59.3z"/>
	<path d="M168,62.6L168,62.6c-0.9,1.5-1.8,2.4-3.9,2.4c-3.4,0-5-2.9-5-5.7s1.5-5.7,5-5.7c1.5,0,3,0.8,3.8,2.3h0v-4
		c0-0.8-0.3-1.3-1.1-1.3h-1.2v-1.1h4.2v13.3c0,0.6,0.3,0.8,0.8,0.8h1.3v1.1H168V62.6z M161.4,59.3c0,2.6,0.9,4.4,3,4.4
		c2.6,0,3.5-2.1,3.5-4.4s-0.9-4.4-3.3-4.4C162.4,54.8,161.4,57,161.4,59.3z"/>
	<path d="M175,64.6v-1.2h1.8c0.7,0,1-0.4,1-1.2V51.8c0-0.8-0.3-1.2-1.1-1.2H175v-1.2h8.2c3.6,0,6.3,0.9,6.3,4.2c0,3-2.5,4.2-5.3,4.2
		h-4.1V62c0,0.8,0.4,1.4,1.5,1.4h1.4v1.2H175z M180.1,56.6h3.3c2.1,0,3.6-0.7,3.6-3s-1.6-3-3.6-3h-3.3V56.6z"/>
	<path d="M192.6,59.4c0,2.3,0.5,4.5,3.2,4.5c1.8,0,3-1,3.4-2.8h1.3c-0.5,2.5-2.1,3.8-4.8,3.8c-3.4,0-5.4-2-5.4-5.7s2-5.7,5.4-5.7
		c3.7,0,4.9,2.6,5.1,5.9H192.6z M198.7,58.3c0-2-0.9-3.7-3-3.7c-2.1,0-3.1,1.7-3.1,3.7H198.7z"/>
	<path d="M212.1,60.7c-0.3,3.1-2.2,4.3-5.2,4.3c-2.8,0-5-1.9-5-5.7c0-3.4,2.4-5.7,5.7-5.7c2,0,4.7,1.1,4.7,3.4
		c0,0.9-0.6,1.6-1.4,1.6c-0.6,0-1.1-0.5-1.1-1.1c0-0.8,0.4-1.2,1.2-1.3c-0.4-1.1-1.9-1.6-2.9-1.6c-2.9,0-3.9,2.5-3.9,4.6
		s0.9,4.6,3.4,4.6c1.8,0,3-1.3,3.4-3.2H212.1z"/>
	<path d="M217.6,49.4v10l4.2-3.4c0.3-0.3,0.5-0.5,0.5-0.7c0-0.3-0.3-0.4-0.8-0.4H220v-1.1h7V55h-0.6c-0.7,0-1.6,0.3-2.1,0.8
		l-3.2,2.6l3.7,4c0.6,0.7,1.3,1.2,2.4,1.2h0.5v1.1h-6.7v-1.1h1.3c0.4,0,0.7-0.1,0.7-0.4c0-0.3-0.5-0.7-0.6-0.9l-2.6-2.8l-2,1.6v1.5
		c0,0.7,0.2,1.1,0.9,1.1h1.2v1.1h-6.4v-1.1h1.2c1,0,1.1-0.3,1.1-1.1V51.6c0-0.7-0.4-1.1-1.2-1.1h-1.1v-1.1H217.6z"/>
	<path d="M230.8,59.4c0,2.3,0.5,4.5,3.2,4.5c1.8,0,3-1,3.4-2.8h1.3c-0.5,2.5-2.1,3.8-4.8,3.8c-3.4,0-5.4-2-5.4-5.7s2-5.7,5.4-5.7
		c3.7,0,4.9,2.6,5.1,5.9H230.8z M236.9,58.3c0-2-0.9-3.7-3-3.7c-2.1,0-3.1,1.7-3.1,3.7H236.9z"/>
	<path d="M244.6,56.2L244.6,56.2c0.6-1.6,2-2.7,3.3-2.7c1.6,0,2.6,0.8,2.6,2.4c0,0.9-0.4,1.5-1.3,1.5c-0.6,0-1.3-0.4-1.3-1.1
		c0-0.8,0.6-1.2,1.4-1.2c-0.1-0.5-0.8-0.6-1.3-0.6c-2.2,0-3.3,2.5-3.3,4.8v3.1c0,0.7,0.4,1.1,1.1,1.1h1.2v1.1h-6.7v-1.1h1.5
		c0.8,0,0.9-0.3,0.9-1.1V56c0-0.7-0.2-1.1-0.9-1.1h-1.6v-1.1h4.4V56.2z"/>
</g>
</svg>
